# xmcd
#
# Track frame offsets: 
#        150
#        22486
#        40134
#        67142
#        91142
#        109206
#        125846
#        146086
#        169734
#        190870
#
# Disc length: 2938 seconds
#
# Revision: 1
# Processed by: cddbd v1.5.2PL0 Copyright (c) Steve Scherf et al.
# Submitted via: ExactAudioCopyFreeDBPlugin 1.0
#
DISCID=980b780a
DTITLE=张悬 - 神的游戏
DYEAR=1900
DGENRE=Country
TTITLE0=玫瑰色的你
TTITLE1=疯狂的阳光
TTITLE2=蓝天白云
TTITLE3=两者
TTITLE4=如何
TTITLE5=危险的，是
TTITLE6=Triste
TTITLE7=我想你要走了
TTITLE8=烟火
TTITLE9=日子
EXTD=
EXTT0=
EXTT1=
EXTT2=
EXTT3=
EXTT4=
EXTT5=
EXTT6=
EXTT7=
EXTT8=
EXTT9=
PLAYORDER=
